<svg width="21" height="21" viewBox="0 0 21 21" fill="none" xmlns="http://www.w3.org/2000/svg">
<path d="M19.3971 15.1398V13.8881H18.0822C18.001 13.4965 17.8455 13.1241 17.6241 12.791L18.5566 11.8585L17.6717 10.9736L16.7392 11.9061C16.4061 11.6847 16.0337 11.5292 15.642 11.448V10.1331H14.3903V11.448C13.9987 11.5292 13.6263 11.6847 13.2932 11.9061L12.3607 10.9736L11.4758 11.8585L12.4083 12.791C12.1869 13.1241 12.0314 13.4965 11.9502 13.8881H10.6353V15.1398H11.9502C12.0314 15.5314 12.1869 15.9039 12.4083 16.2369L11.4758 17.1695L12.3607 18.0544L13.2932 17.1219C13.6263 17.3433 13.9987 17.4988 14.3903 17.58V18.8949H15.642V17.58C16.0337 17.4988 16.4061 17.3433 16.7392 17.1219L17.6717 18.0544L18.5566 17.1695L17.6241 16.2369C17.8455 15.9039 18.001 15.5314 18.0822 15.1398H19.3971ZM15.0162 16.3915C14.6449 16.3915 14.2819 16.2814 13.9731 16.0751C13.6643 15.8688 13.4237 15.5756 13.2816 15.2325C13.1395 14.8894 13.1023 14.5119 13.1747 14.1477C13.2472 13.7835 13.426 13.4489 13.6886 13.1864C13.9512 12.9238 14.2857 12.745 14.6499 12.6725C15.0141 12.6001 15.3916 12.6373 15.7347 12.7794C16.0778 12.9215 16.371 13.1621 16.5773 13.4709C16.7836 13.7796 16.8937 14.1426 16.8937 14.514C16.8932 15.0118 16.6953 15.4891 16.3433 15.8411C15.9913 16.1931 15.514 16.391 15.0162 16.3915Z" fill="white"/>
<path d="M18.1454 2.62292H3.12511C2.79314 2.62292 2.47476 2.7548 2.24003 2.98954C2.00529 3.22428 1.87341 3.54265 1.87341 3.87462V16.3916C1.87341 16.7235 2.00529 17.0419 2.24003 17.2766C2.47476 17.5114 2.79314 17.6432 3.12511 17.6432H9.38357V16.3916H3.12511V7.6297H18.1454V9.50724H19.3971V3.87462C19.3971 3.54265 19.2652 3.22428 19.0305 2.98954C18.7958 2.7548 18.4774 2.62292 18.1454 2.62292ZM18.1454 6.37801H3.12511V3.87462H18.1454V6.37801Z" fill="white"/>
<path d="M13.1386 5.75218C13.4843 5.75218 13.7645 5.47198 13.7645 5.12633C13.7645 4.78069 13.4843 4.50049 13.1386 4.50049C12.793 4.50049 12.5128 4.78069 12.5128 5.12633C12.5128 5.47198 12.793 5.75218 13.1386 5.75218Z" fill="white"/>
<path d="M15.0162 5.75218C15.3618 5.75218 15.642 5.47198 15.642 5.12633C15.642 4.78069 15.3618 4.50049 15.0162 4.50049C14.6706 4.50049 14.3904 4.78069 14.3904 5.12633C14.3904 5.47198 14.6706 5.75218 15.0162 5.75218Z" fill="white"/>
<path d="M16.8937 5.75218C17.2394 5.75218 17.5196 5.47198 17.5196 5.12633C17.5196 4.78069 17.2394 4.50049 16.8937 4.50049C16.5481 4.50049 16.2679 4.78069 16.2679 5.12633C16.2679 5.47198 16.5481 5.75218 16.8937 5.75218Z" fill="white"/>
</svg>
