<svg width="21" height="21" viewBox="0 0 21 21" fill="none" xmlns="http://www.w3.org/2000/svg">
<g clip-path="url(#clip0_1_1055)">
<path d="M20.5599 8.70222L11.4321 0.424483C11.2103 0.2219 10.9333 0.111328 10.6475 0.111328C10.3618 0.111328 10.0848 0.2219 9.863 0.424483L0.735217 8.70222C0.711104 8.72388 0.691056 8.75071 0.676237 8.78116C0.661418 8.81161 0.652124 8.84507 0.648894 8.8796C0.645663 8.91412 0.648561 8.94902 0.657419 8.98228C0.666278 9.01553 0.680919 9.04647 0.700495 9.07331L1.19355 9.7569C1.21314 9.78411 1.23731 9.80671 1.26468 9.8234C1.29204 9.84009 1.32206 9.85055 1.35302 9.85418C1.38398 9.85781 1.41527 9.85453 1.4451 9.84455C1.47494 9.83456 1.50273 9.81805 1.52688 9.79597L2.86959 8.57761V19.487C2.86959 19.6527 2.92812 19.8117 3.03231 19.9289C3.1365 20.0461 3.27781 20.112 3.42515 20.112H17.8696C18.0169 20.112 18.1582 20.0461 18.2624 19.9289C18.3666 19.8117 18.4251 19.6527 18.4251 19.487V8.58151L19.7724 9.80378C19.8212 9.84828 19.8837 9.86916 19.9462 9.86183C20.0087 9.85451 20.0661 9.81958 20.1057 9.76472L20.5984 9.08112C20.636 9.02427 20.6529 8.95347 20.6457 8.8831C20.6385 8.81273 20.6079 8.74806 20.5599 8.70222ZM8.9807 18.862V12.612H12.314V18.862H8.9807ZM17.314 18.862H13.4251V11.987C13.4251 11.8212 13.3666 11.6623 13.2624 11.545C13.1582 11.4278 13.0169 11.362 12.8696 11.362H8.42515C8.27781 11.362 8.1365 11.4278 8.03231 11.545C7.92812 11.6623 7.86959 11.8212 7.86959 11.987V18.862H3.9807V7.5698L10.4984 1.65573C10.5395 1.61784 10.5911 1.59714 10.6442 1.59714C10.6974 1.59714 10.7489 1.61784 10.7901 1.65573L17.314 7.57292V18.862Z" fill="white"/>
</g>
<defs>
<clipPath id="clip0_1_1055">
<rect width="20" height="20" fill="white" transform="translate(0.646957 0.113037)"/>
</clipPath>
</defs>
</svg>
