<svg width="21" height="21" viewBox="0 0 21 21" fill="none" xmlns="http://www.w3.org/2000/svg">
<path d="M5.2188 8.06013C5.2188 6.55893 6.5264 5.34229 8.13941 5.34229C9.75243 5.34229 11.06 6.55893 11.06 8.06013C11.06 9.54964 10.1279 11.2878 8.67347 11.9095C8.50453 11.9811 8.32291 12.018 8.13941 12.018C7.95592 12.018 7.7743 11.9811 7.60536 11.9095C6.15089 11.2878 5.2188 9.54964 5.2188 8.06013Z" stroke="white" stroke-width="1.5"/>
<path d="M12.3117 12.4352L17.7357 17.8592M12.3117 12.4352L5.96564 18.7813M12.3117 12.4352L13.9806 10.7663M18.6595 6.08826L16.484 8.26287" stroke="white" stroke-width="1.5" stroke-linecap="round"/>
<path d="M8.97388 8.26281C8.97388 8.48412 8.88596 8.69637 8.72947 8.85286C8.57298 9.00935 8.36073 9.09727 8.13942 9.09727C7.9181 9.09727 7.70586 9.00935 7.54936 8.85286C7.39287 8.69637 7.30495 8.48412 7.30495 8.26281C7.30495 8.04149 7.39287 7.82925 7.54936 7.67275C7.70586 7.51626 7.9181 7.42834 8.13942 7.42834C8.36073 7.42834 8.57298 7.51626 8.72947 7.67275C8.88596 7.82925 8.97388 8.04149 8.97388 8.26281Z" fill="white"/>
<path d="M2.29818 10.7663C2.29818 14.6999 2.29818 16.6667 3.51983 17.8884C4.74315 19.1109 6.70915 19.1109 10.6428 19.1109C14.5765 19.1109 16.5433 19.1109 17.7649 17.8884C18.9874 16.6676 18.9874 14.6999 18.9874 10.7663C18.9874 6.8326 18.9874 4.86577 17.7649 3.64328C16.5441 2.42163 14.5765 2.42163 10.6428 2.42163C6.70915 2.42163 4.74232 2.42163 3.51983 3.64328C2.7079 4.45605 2.43503 5.59843 2.34408 7.4284" stroke="white" stroke-width="1.5" stroke-linecap="round"/>
</svg>
