<svg width="18" height="18" viewBox="0 0 18 18" fill="none" xmlns="http://www.w3.org/2000/svg">
<g clip-path="url(#clip0_1_1045)">
<path d="M5.3389 8.1756C5.3389 7.88243 5.57796 7.64257 5.87015 7.64257H10.6514V4.51437C10.6514 4.27784 10.9369 4.15791 11.103 4.32448L15.8045 9.09173C16.0137 9.30161 16.0137 9.63809 15.8045 9.84797L11.103 14.6152C10.9369 14.7818 10.6514 14.6652 10.6514 14.4253V11.2971H5.87015C5.57796 11.2971 5.3389 11.0573 5.3389 10.7641V8.1756ZM4.2764 8.1756V10.7641C4.2764 11.6469 4.99026 12.3632 5.87015 12.3632H9.5889V14.4253C9.5889 15.608 11.0166 16.2076 11.8534 15.3681L16.5582 10.6042C17.1825 9.97789 17.1825 8.96514 16.5582 8.33883L11.8534 3.57158C11.02 2.73539 9.5889 3.32838 9.5889 4.51437V6.57651H5.87015C4.99026 6.57651 4.2764 7.2961 4.2764 8.1756ZM0.0263977 4.67428V14.2688C0.0263977 15.1516 0.740265 15.8678 1.62015 15.8678H6.00296C6.2221 15.8678 6.4014 15.6879 6.4014 15.4681V15.2016C6.4014 14.9817 6.2221 14.8018 6.00296 14.8018H1.62015C1.32796 14.8018 1.0889 14.5619 1.0889 14.2688V4.67428C1.0889 4.38111 1.32796 4.14125 1.62015 4.14125H6.00296C6.2221 4.14125 6.4014 3.96135 6.4014 3.74148V3.47497C6.4014 3.25509 6.2221 3.0752 6.00296 3.0752H1.62015C0.740265 3.0752 0.0263977 3.79145 0.0263977 4.67428Z" fill="white"/>
</g>
<defs>
<clipPath id="clip0_1_1045">
<rect width="17" height="17.0569" fill="white" transform="translate(0.0263977 0.943115)"/>
</clipPath>
</defs>
</svg>
