<svg width="21" height="21" viewBox="0 0 21 21" fill="none" xmlns="http://www.w3.org/2000/svg">
<path fill-rule="evenodd" clip-rule="evenodd" d="M10.623 2.03137C10.5417 1.99437 10.4533 1.97522 10.3639 1.97522C10.2746 1.97522 10.1862 1.99437 10.1048 2.03137L2.07398 5.68256C1.96441 5.73211 1.87143 5.81217 1.80617 5.91317C1.7409 6.01417 1.70612 6.13183 1.70598 6.25208V14.2842C1.70602 14.3967 1.73638 14.5071 1.79387 14.6038C1.85136 14.7005 1.93386 14.7799 2.03267 14.8337L10.0648 19.2146C10.1567 19.2648 10.2598 19.2911 10.3646 19.2911C10.4693 19.2911 10.5724 19.2648 10.6643 19.2146L12.8673 18.013V12.5105H14.119V17.3296L15.3707 16.6474V11.2589H16.6224V15.964L18.6952 14.8337C18.794 14.7797 18.8763 14.7 18.9336 14.603C18.9909 14.5061 19.021 14.3955 19.0207 14.2829V6.25208C19.0207 6.13211 18.9863 6.01464 18.9215 5.91366C18.8567 5.81269 18.7643 5.73247 18.6552 5.68256L10.623 2.03137ZM2.95767 13.9124V7.22465L9.73809 10.3063V17.6099L2.95767 13.9124ZM10.3639 9.21484L16.8853 6.25208L10.3639 3.28932L3.84512 6.25208L10.3639 9.21484Z" fill="#FFF6F6"/>
</svg>
