<svg width="21" height="21" viewBox="0 0 21 21" fill="none" xmlns="http://www.w3.org/2000/svg">
<path d="M15.5294 10.3674C15.6434 10.2494 15.7065 10.0913 15.7051 9.92717C15.7037 9.76308 15.6378 9.60611 15.5218 9.49007C15.4058 9.37403 15.2488 9.30821 15.0847 9.30679C14.9206 9.30536 14.7625 9.36844 14.6445 9.48245L10.0758 14.0511L8.0105 11.9858C7.89246 11.8718 7.73437 11.8087 7.57028 11.8102C7.40618 11.8116 7.24921 11.8774 7.13317 11.9935C7.01714 12.1095 6.95132 12.2665 6.94989 12.4306C6.94846 12.5947 7.01155 12.7527 7.12555 12.8708L9.62894 15.3742C9.7463 15.4915 9.90546 15.5574 10.0714 15.5574C10.2374 15.5574 10.3965 15.4915 10.5139 15.3742L15.5207 10.3674H15.5294Z" fill="white"/>
<path fill-rule="evenodd" clip-rule="evenodd" d="M5.74118 3.07005C5.86679 2.69814 6.10582 2.37496 6.42464 2.14595C6.74346 1.91694 7.12604 1.79361 7.51858 1.79332H7.85404C8.28712 1.04481 9.09572 0.541626 10.0195 0.541626H11.2712C12.1974 0.541626 13.011 1.04481 13.4366 1.79332H13.772C14.1646 1.79361 14.5472 1.91694 14.866 2.14595C15.1848 2.37496 15.4238 2.69814 15.5494 3.07005C16.3368 3.1126 16.8888 3.21149 17.3519 3.44931C18.0567 3.8106 18.6303 4.38417 18.9916 5.08903C19.4009 5.89261 19.4009 6.94153 19.4009 9.04438V14.5518C19.4009 16.6547 19.4009 17.7061 18.9916 18.5072C18.6317 19.2131 18.0578 19.787 17.3519 20.1469C16.5483 20.5562 15.4994 20.5562 13.3965 20.5562H7.88909C5.78624 20.5562 4.73482 20.5562 3.93373 20.1469C3.22786 19.787 2.65391 19.2131 2.29402 18.5072C1.88471 17.7036 1.88471 16.6547 1.88471 14.5518V9.04438C1.88471 6.94153 1.88471 5.89011 2.29402 5.08903C2.6553 4.38417 3.22887 3.8106 3.93373 3.44931C4.39936 3.21274 4.94761 3.1126 5.73617 3.07005H5.74118ZM8.21953 3.04001C8.32939 3.04 8.43731 3.01108 8.53245 2.95615C8.62758 2.90123 8.70659 2.82222 8.76152 2.72708L8.94176 2.41416C9.05156 2.22347 9.2097 2.06509 9.40022 1.95499C9.59075 1.8449 9.80693 1.78697 10.027 1.78706H11.2787C11.4986 1.78685 11.7147 1.84458 11.9052 1.95445C12.0957 2.06432 12.2539 2.22245 12.3639 2.41291L12.5441 2.72583C12.5991 2.82097 12.6781 2.89997 12.7732 2.9549C12.8683 3.00983 12.9763 3.03875 13.0861 3.03875H13.7821C13.948 3.03875 14.1072 3.10469 14.2246 3.22206C14.342 3.33943 14.4079 3.49862 14.4079 3.6646V4.91629C14.4079 5.08228 14.342 5.24147 14.2246 5.35883C14.1072 5.4762 13.948 5.54214 13.7821 5.54214H7.52359C7.35761 5.54214 7.19842 5.4762 7.08105 5.35883C6.96368 5.24147 6.89774 5.08228 6.89774 4.91629V3.6646C6.89774 3.49862 6.96368 3.33943 7.08105 3.22206C7.19842 3.10469 7.35761 3.03875 7.52359 3.03875L8.21953 3.04001ZM5.64104 4.32925L5.52964 4.33676C4.9814 4.38182 4.69977 4.46318 4.50451 4.56207C4.03348 4.80207 3.65053 5.18502 3.41053 5.65604C3.31039 5.85131 3.22903 6.13294 3.18522 6.68243C3.13891 7.2457 3.13766 7.97168 3.13766 9.04813V14.5556C3.13766 15.627 3.13891 16.358 3.18522 16.9213C3.23028 17.4683 3.31164 17.7499 3.41053 17.9452C3.65085 18.4158 4.03387 18.7988 4.50451 19.0392C4.69977 19.1393 4.9814 19.2206 5.52964 19.2645C6.09291 19.3108 6.81889 19.312 7.89534 19.312H13.4028C14.4755 19.312 15.2052 19.3108 15.7685 19.2645C16.3167 19.2194 16.5984 19.1393 16.7936 19.0392C17.2643 18.7988 17.6473 18.4158 17.8876 17.9452C17.9877 17.7499 18.0691 17.4695 18.1129 16.92C18.1592 16.3568 18.1605 15.6308 18.1605 14.5543V9.04688C18.1605 7.97418 18.1592 7.24444 18.1129 6.68118C18.0679 6.13294 17.9865 5.85131 17.8876 5.65604C17.6476 5.18502 17.2647 4.80207 16.7936 4.56207C16.5984 4.46193 16.3167 4.38057 15.7685 4.33676L15.6571 4.32925V4.91629C15.6571 5.41425 15.4593 5.89181 15.1072 6.24392C14.7551 6.59602 14.2775 6.79383 13.7796 6.79383H7.52109C7.02313 6.79383 6.54557 6.59602 6.19347 6.24392C5.84136 5.89181 5.64355 5.41425 5.64355 4.91629V4.328L5.64104 4.32925Z" fill="white"/>
</svg>
