<svg width="16" height="17" viewBox="0 0 16 17" fill="none" xmlns="http://www.w3.org/2000/svg">
<path d="M7.89697 0.422485C6.90241 0.422485 5.94858 0.817573 5.24532 1.52083C4.54206 2.2241 4.14697 3.17792 4.14697 4.17249C4.14697 5.16705 4.54206 6.12087 5.24532 6.82414C5.94858 7.5274 6.90241 7.92249 7.89697 7.92249C8.89153 7.92249 9.84536 7.5274 10.5486 6.82414C11.2519 6.12087 11.647 5.16705 11.647 4.17249C11.647 3.17792 11.2519 2.2241 10.5486 1.52083C9.84536 0.817573 8.89153 0.422485 7.89697 0.422485ZM3.89697 9.92249C2.90241 9.92249 1.94858 10.3176 1.24532 11.0208C0.542061 11.7241 0.146973 12.6779 0.146973 13.6725V14.8605C0.146973 15.6145 0.692973 16.2565 1.43697 16.3775C5.71497 17.0765 10.079 17.0765 14.357 16.3775C14.7168 16.3183 15.0439 16.1333 15.2802 15.8555C15.5164 15.5777 15.6464 15.2251 15.647 14.8605V13.6725C15.647 12.6779 15.2519 11.7241 14.5486 11.0208C13.8454 10.3176 12.8915 9.92249 11.897 9.92249H11.557C11.3703 9.92315 11.189 9.95182 11.013 10.0085L10.147 10.2915C8.68494 10.7688 7.109 10.7688 5.64697 10.2915L4.78097 10.0085C4.60544 9.95218 4.42231 9.92318 4.23797 9.92249H3.89697Z" fill="white"/>
</svg>
